<svg width="24" height="24" viewBox="0 0 24 24" fill="none" xmlns="http://www.w3.org/2000/svg">
<path d="M8.90428 16.5009H15.0958C14.4758 19.7722 13.2344 21.9991 12 21.9991C10.803 21.9991 9.59945 19.9051 8.96234 16.7954L8.90428 16.5009H15.0958H8.90428ZM3.06583 16.501L7.37146 16.5008C7.73624 18.583 8.35452 20.3545 9.16366 21.5943C6.60082 20.8374 4.46716 19.0826 3.21218 16.7799L3.06583 16.501ZM16.6286 16.5008L20.9342 16.501C19.7029 18.9406 17.5017 20.8071 14.8374 21.5939C15.592 20.4363 16.1807 18.8163 16.5523 16.9129L16.6286 16.5008L20.9342 16.501L16.6286 16.5008ZM16.9315 10.0008L21.8015 10.0002C21.9327 10.6465 22.0016 11.3155 22.0016 12.0005C22.0016 13.0458 21.8412 14.0537 21.5437 15.0009H16.8411C16.9464 14.0433 17.0016 13.0372 17.0016 12.0005C17.0016 11.5462 16.991 11.0978 16.9702 10.6567L16.9315 10.0008L21.8015 10.0002L16.9315 10.0008ZM2.19854 10.0002L7.06856 10.0008C7.02232 10.6508 6.99847 11.319 6.99847 12.0005C6.99847 12.8299 7.03379 13.6397 7.10182 14.4207L7.15894 15.0009H2.45631C2.15884 14.0537 1.99847 13.0458 1.99847 12.0005C1.99847 11.3155 2.06734 10.6465 2.19854 10.0002ZM8.57552 10.0003H15.4245C15.4748 10.6459 15.5016 11.3148 15.5016 12.0005C15.5016 12.8382 15.4616 13.6506 15.3877 14.4263L15.3261 15.001H8.67398C8.56093 14.0552 8.49847 13.0476 8.49847 12.0005C8.49847 11.4862 8.51355 10.9814 8.54228 10.4888L8.57552 10.0003H15.4245H8.57552ZM14.9443 2.5771L14.8364 2.40687C17.8547 3.29785 20.2787 5.57445 21.3719 8.50019L16.7811 8.50049C16.4655 6.08356 15.8246 4.00788 14.9443 2.5771L14.8364 2.40687L14.9443 2.5771ZM9.0418 2.44368L9.16358 2.40691C8.28282 3.75642 7.62821 5.73603 7.28055 8.06065L7.21898 8.50049L2.6281 8.50019C3.70656 5.61393 6.08016 3.35939 9.0418 2.44368L9.16358 2.40691L9.0418 2.44368ZM12 2.00198C13.3188 2.00198 14.6456 4.54373 15.214 8.18543L15.2608 8.50023H8.7392C9.27861 4.69105 10.6436 2.00198 12 2.00198Z" fill="#101928"/>
</svg>
